<!DOCTYPE svg PUBLIC "-//W3C//DTD SVG 1.1//EN" "http://www.w3.org/Graphics/SVG/1.1/DTD/svg11.dtd">
<!-- Uploaded to: SVG Repo, www.svgrepo.com, Transformed by: SVG Repo Mixer Tools -->
<svg fill="#fff" width="800px" height="800px" viewBox="0 0 1920 1920" xmlns="http://www.w3.org/2000/svg" stroke="#fff">
<g id="SVGRepo_bgCarrier" stroke-width="0"/>
<g id="SVGRepo_tracerCarrier" stroke-linecap="round" stroke-linejoin="round"/>
<g id="SVGRepo_iconCarrier"> <path d="M960 293.333v160H186.667C171.939 453.333 160 465.272 160 480v1253.33c0 14.73 11.939 26.67 26.667 26.67H1440c14.73 0 26.67-11.94 26.67-26.67V960h160v773.33c0 103.1-83.58 186.67-186.67 186.67H186.667C83.573 1920 0 1836.43 0 1733.33V480c0-103.093 83.573-186.667 186.667-186.667H960ZM586.667 800 1120 1120l-533.333 320V800ZM1626.67 0v293.333H1920v160h-293.33v293.334h-160V453.333h-293.34v-160h293.34V0h160Z" fill-rule="evenodd"/> </g>
</svg>